<mxfile host="app.diagrams.net" modified="2022-02-10T10:31:38.069Z" agent="5.0 (Windows NT 10.0; Win64; x64) AppleWebKit/537.36 (KHTML, like Gecko) Chrome/98.0.4758.82 Safari/537.36" etag="VEjzHIcnwZQ9U2p0L5k9" version="16.5.5" type="github">
  <diagram id="Za418WhtZrfoSMjR2k4V" name="Page-1">
    <mxGraphModel dx="1422" dy="762" grid="1" gridSize="10" guides="1" tooltips="1" connect="1" arrows="1" fold="1" page="1" pageScale="1" pageWidth="850" pageHeight="1100" math="0" shadow="0">
      <root>
        <mxCell id="0" />
        <mxCell id="1" parent="0" />
        <mxCell id="fSakol7xfLL2G2BJwjkC-4" value="" style="ellipse;whiteSpace=wrap;html=1;fillColor=#dae8fc;strokeColor=none;" vertex="1" parent="1">
          <mxGeometry x="240" y="420" width="280" height="280" as="geometry" />
        </mxCell>
        <mxCell id="fSakol7xfLL2G2BJwjkC-1" value="" style="ellipse;whiteSpace=wrap;html=1;fillColor=#f8cecc;strokeColor=none;" vertex="1" parent="1">
          <mxGeometry x="100" y="280" width="280" height="280" as="geometry" />
        </mxCell>
        <mxCell id="fSakol7xfLL2G2BJwjkC-3" value="" style="ellipse;whiteSpace=wrap;html=1;fillColor=#fff2cc;strokeColor=none;" vertex="1" parent="1">
          <mxGeometry x="240" y="140" width="280" height="280" as="geometry" />
        </mxCell>
        <mxCell id="fSakol7xfLL2G2BJwjkC-2" value="" style="ellipse;whiteSpace=wrap;html=1;fillColor=#e1d5e7;strokeColor=none;" vertex="1" parent="1">
          <mxGeometry x="380" y="280" width="280" height="280" as="geometry" />
        </mxCell>
        <mxCell id="fSakol7xfLL2G2BJwjkC-8" value="" style="whiteSpace=wrap;html=1;shape=mxgraph.basic.pointed_oval;rotation=-45;strokeColor=none;fillColor=#dae8fc;" vertex="1" parent="1">
          <mxGeometry x="394" y="391.54" width="110" height="200" as="geometry" />
        </mxCell>
      </root>
    </mxGraphModel>
  </diagram>
</mxfile>
